<svg xmlns="http://www.w3.org/2000/svg" xmlns:xlink="http://www.w3.org/1999/xlink" version="1.1" x="0px" y="0px" viewBox="0 0 48 60" enable-background="new 0 0 48 48" xml:space="preserve"><g><rect y="10.772" width="11.23" height="36.998"/><rect x="12.308" y="26.841" width="11.228" height="20.93"/><rect x="24.535" y="20.29" width="11.23" height="27.48"/><rect x="36.767" y="34.03" width="11.233" height="13.74"/><path d="M5.98,8.79c0.063,0,0.125-0.006,0.189-0.018c0.543-0.104,0.899-0.628,0.795-1.171L6.282,4.021l14.747,10.547   c0.357,0.255,0.841,0.247,1.192-0.021l7.525-5.78l14.834,8.678c0.158,0.094,0.333,0.137,0.504,0.137   c0.345,0,0.68-0.177,0.865-0.495c0.279-0.477,0.119-1.09-0.358-1.369L30.176,6.698c-0.352-0.205-0.793-0.178-1.115,0.07   l-7.472,5.738L7.478,2.414l3.937-0.184c0.553-0.026,0.979-0.495,0.953-1.047S11.881,0.213,11.32,0.23L4.742,0.538   c-0.29,0.014-0.56,0.153-0.739,0.381C3.824,1.146,3.752,1.44,3.806,1.726l1.192,6.251C5.09,8.456,5.51,8.79,5.98,8.79z"/></g><text x="0" y="63" fill="#000000" font-size="5px" font-weight="bold" font-family="'Helvetica Neue', Helvetica, Arial-Unicode, Arial, Sans-serif">Created by Creative Stall</text><text x="0" y="68" fill="#000000" font-size="5px" font-weight="bold" font-family="'Helvetica Neue', Helvetica, Arial-Unicode, Arial, Sans-serif">from the Noun Project</text></svg>